<?xml version="1.0" encoding="UTF-8"?>
<svg width="20px" height="19px" viewBox="0 0 20 19" version="1.1" xmlns="http://www.w3.org/2000/svg" xmlns:xlink="http://www.w3.org/1999/xlink">
    <!-- Generator: Sketch 42 (36781) - http://www.bohemiancoding.com/sketch -->
    <title>Page 1</title>
    <desc>Created with Sketch.</desc>
    <defs></defs>
    <g id="Page-1" stroke="none" stroke-width="1" fill="none" fill-rule="evenodd">
        <g id="Personal---Mobile" transform="translate(-336.000000, -20.000000)" fill="#FFFFFF">
            <path d="M352.560967,20.796 L338.81224,20.796 C337.249884,20.796 336,22.0458843 336,23.6082396 L336,32.6699006 C336,34.2322559 337.249884,35.4821402 338.81224,35.4821402 L342.687297,35.4821402 L345.686603,38.796 L348.685909,35.4838067 L352.560967,35.4838067 C354.123322,35.4838067 355.373206,34.2339224 355.373206,32.6715671 L355.373206,23.6099061 C355.373206,22.0458843 354.123322,20.796 352.560967,20.796 Z M354.123322,32.6699006 C354.123322,33.5456528 353.436719,34.2322559 352.560967,34.2322559 L348.685909,34.2322559 C348.342607,34.2322559 347.999306,34.3884914 347.748496,34.6393015 L345.686603,36.9520041 L343.59388,34.6393015 C343.34307,34.3884914 343.030599,34.2322559 342.656467,34.2322559 L338.81224,34.2322559 C337.936487,34.2322559 337.249884,33.5456528 337.249884,32.6699006 L337.249884,23.6082396 C337.249884,22.732904 337.936487,22.0458843 338.81224,22.0458843 L352.560967,22.0458843 C353.436719,22.0458843 354.123322,22.732904 354.123322,23.6082396 L354.123322,32.6699006 Z" id="Page-1"></path>
        </g>
    </g>
</svg>